<svg width="87" height="50" viewBox="0 0 87 50" fill="none" xmlns="http://www.w3.org/2000/svg">
<path d="M20.5685 18.7726C20.4867 18.4755 20.6503 18.2644 20.9475 18.2644H22.8941C23.062 18.2644 23.2343 18.4109 23.2774 18.5616L25.4781 26.9983H25.5599L28.9234 18.286C28.9664 18.1611 29.0741 18.0534 29.2808 18.0534H29.6598C29.8708 18.0534 29.9785 18.1611 30.0216 18.286L33.4066 26.9983H33.4884L35.646 18.5616C35.6891 18.4109 35.857 18.2644 36.0293 18.2644H37.9759C38.2731 18.2644 38.4453 18.4755 38.3592 18.7726L34.3626 32.9888C34.3196 33.1568 34.1516 33.286 33.9793 33.286H33.6391C33.4496 33.286 33.3247 33.1783 33.2817 33.0534L29.4918 23.4711H29.3885L25.646 33.0534C25.5814 33.1783 25.4953 33.286 25.2843 33.286H24.944C24.7761 33.286 24.6038 33.1611 24.5607 32.9888L20.5642 18.7726H20.5685Z" fill="#222222"/>
<path d="M44.6899 20.702H41.4514C41.2188 20.702 41.0508 20.5125 41.0508 20.3015V18.5659C41.0508 18.3549 41.2188 18.1654 41.4514 18.1654H50.6934C50.9259 18.1654 51.0939 18.3549 51.0939 18.5659V20.3015C51.0939 20.5125 50.9259 20.702 50.6934 20.702H47.4591V32.5668C47.4591 32.7778 47.2653 32.9673 47.0586 32.9673H45.0905C44.8794 32.9673 44.6899 32.7735 44.6899 32.5668V20.702Z" fill="#222222"/>
<path d="M53.7726 18.5659C53.7726 18.3549 53.9621 18.1654 54.1731 18.1654H56.1843C56.4126 18.1654 56.5848 18.3549 56.5848 18.5659V27.2179C56.5848 29.0138 57.8165 30.435 59.6512 30.435C61.4858 30.435 62.739 29.0181 62.739 27.2438V18.5702C62.739 18.3592 62.907 18.1697 63.1395 18.1697H65.1464C65.3575 18.1697 65.5469 18.3592 65.5469 18.5702V27.3686C65.5469 30.5857 62.9888 33.1869 59.6469 33.1869C56.3049 33.1869 53.7683 30.5857 53.7683 27.3686V18.5702L53.7726 18.5659Z" fill="#222222"/>
<path d="M85.6977 0H0.400517C0.167959 0 0 0.189492 0 0.400517V49.5995C0 49.8105 0.167959 50 0.400517 50H85.6977C85.9302 50 86.0982 49.8105 86.0982 49.5995V0.400517C86.0982 0.189492 85.9302 0 85.6977 0ZM2.74763 2.75194H83.3463V47.2524H2.74763V2.75194Z" fill="#222222"/>
</svg>
